<svg width="59" height="58" viewBox="0 0 59 58" fill="none" xmlns="http://www.w3.org/2000/svg">
<g clip-path="url(#clip0_1412_499)">
<path d="M30.8103 29.0001L38.5301 21.2803C38.6667 21.1389 38.7423 20.9494 38.7406 20.7528C38.7389 20.5561 38.66 20.368 38.521 20.2289C38.3819 20.0899 38.1938 20.011 37.9971 20.0093C37.8005 20.0076 37.611 20.0832 37.4696 20.2198L29.7498 27.9396L22.0301 20.2198C21.8886 20.0832 21.6992 20.0076 21.5025 20.0093C21.3059 20.011 21.1178 20.0899 20.9787 20.2289C20.8397 20.368 20.7608 20.5561 20.7591 20.7528C20.7574 20.9494 20.833 21.1389 20.9696 21.2803L28.6893 29.0001L20.9696 36.7198C20.829 36.8605 20.75 37.0512 20.75 37.2501C20.75 37.4489 20.829 37.6397 20.9696 37.7803V37.7803C21.1102 37.9209 21.301 37.9999 21.4998 37.9999C21.6987 37.9999 21.8894 37.9209 22.0301 37.7803L29.7498 30.0606L37.4696 37.7803C37.6102 37.9209 37.801 37.9999 37.9998 37.9999C38.1987 37.9999 38.3894 37.9209 38.5301 37.7803C38.6707 37.6397 38.7497 37.4489 38.7497 37.2501C38.7497 37.0512 38.6707 36.8605 38.5301 36.7198L30.8103 29.0001Z" fill="#EEEBDD"/>
</g>
<rect x="1.75" y="1" width="56" height="56" rx="28" stroke="#EEEBDD" stroke-width="2"/>
<defs>
<clipPath id="clip0_1412_499">
<rect width="18" height="18" fill="#EEEBDD" transform="translate(20.75 20)"/>
</clipPath>
</defs>
</svg>
