<svg width="27" height="27" viewBox="0 0 27 27" fill="none" xmlns="http://www.w3.org/2000/svg">
<path d="M16.4751 11.645L12.4589 7.62877C12.2949 7.4658 12.0732 7.37433 11.842 7.37433C11.6108 7.37433 11.3891 7.4658 11.2251 7.62877C11.1431 7.71011 11.078 7.80689 11.0336 7.91352C10.9892 8.02014 10.9663 8.13451 10.9663 8.25002C10.9663 8.36553 10.9892 8.4799 11.0336 8.58653C11.078 8.69315 11.1431 8.78993 11.2251 8.87127L15.2501 12.8788C15.3321 12.9601 15.3972 13.0569 15.4417 13.1635C15.4861 13.2701 15.509 13.3845 15.509 13.5C15.509 13.6155 15.4861 13.7299 15.4417 13.8365C15.3972 13.9432 15.3321 14.0399 15.2501 14.1213L11.2251 18.1288C11.0604 18.2924 10.9673 18.5147 10.9665 18.7469C10.9657 18.9791 11.0572 19.2021 11.2208 19.3669C11.3844 19.5317 11.6067 19.6247 11.8389 19.6255C12.0711 19.6263 12.2941 19.5349 12.4589 19.3713L16.4751 15.355C16.9667 14.8628 17.2428 14.1956 17.2428 13.5C17.2428 12.8044 16.9667 12.1372 16.4751 11.645Z" fill="#CE1212"/>
<rect x="1" y="1" width="25" height="25" rx="12.5" stroke="#CE1212" stroke-width="2"/>
</svg>
