<svg width="61" height="61" viewBox="0 0 61 61" fill="none" xmlns="http://www.w3.org/2000/svg">
<g clip-path="url(#clip0_127_208)">
<path d="M36.9164 32.8336C36.2548 32.8342 35.6033 32.9957 35.0181 33.3042C34.4328 33.6128 33.9315 34.0591 33.5572 34.6046L27.8619 32.033C28.2664 31.0562 28.268 29.959 27.8662 28.981L33.5537 26.3963C34.1084 27.1984 34.9322 27.7752 35.8756 28.022C36.8191 28.2689 37.8198 28.1694 38.6962 27.7416C39.5726 27.3138 40.2667 26.586 40.6525 25.6904C41.0383 24.7947 41.0903 23.7904 40.7991 22.8597C40.5078 21.9289 39.8927 21.1334 39.0651 20.6174C38.2376 20.1013 37.2525 19.899 36.2886 20.0471C35.3247 20.1951 34.4457 20.6837 33.8112 21.4243C33.1767 22.1649 32.8286 23.1084 32.8301 24.0836C32.8338 24.3145 32.8573 24.5445 32.9001 24.7714L26.8539 27.5189C26.2732 26.9748 25.5462 26.6122 24.7623 26.4757C23.9783 26.3391 23.1715 26.4345 22.4411 26.7502C21.7106 27.0658 21.0883 27.5879 20.6505 28.2524C20.2127 28.9169 19.9785 29.6948 19.9768 30.4906C19.975 31.2863 20.2058 32.0653 20.6406 32.7317C21.0755 33.3981 21.6955 33.923 22.4246 34.2418C23.1537 34.5607 23.96 34.6596 24.7446 34.5265C25.5291 34.3934 26.2577 34.034 26.8407 33.4925L32.9027 36.2295C32.8606 36.4561 32.8375 36.6859 32.8336 36.9164C32.8335 37.7241 33.0728 38.5138 33.5215 39.1854C33.9701 39.8571 34.6079 40.3807 35.3541 40.6899C36.1003 40.9991 36.9215 41.08 37.7137 40.9225C38.5059 40.7649 39.2337 40.376 39.8048 39.8048C40.376 39.2337 40.7649 38.5059 40.9225 37.7137C41.08 36.9215 40.999 36.1003 40.6899 35.3541C40.3807 34.6079 39.8571 33.9701 39.1854 33.5215C38.5138 33.0728 37.7241 32.8335 36.9164 32.8336ZM36.9164 21.75C37.378 21.7498 37.8292 21.8865 38.2131 22.1429C38.597 22.3992 38.8962 22.7636 39.073 23.19C39.2497 23.6164 39.2961 24.0856 39.2061 24.5384C39.1162 24.9911 38.894 25.407 38.5677 25.7334C38.2414 26.0599 37.8255 26.2822 37.3728 26.3723C36.9201 26.4625 36.4509 26.4163 36.0244 26.2397C35.5979 26.0631 35.2334 25.764 34.977 25.3802C34.7205 24.9964 34.5836 24.5452 34.5836 24.0836C34.5841 23.465 34.83 22.8718 35.2673 22.4343C35.7047 21.9968 36.2978 21.7507 36.9164 21.75ZM24.0836 32.8336C23.622 32.8338 23.1708 32.6971 22.7869 32.4408C22.403 32.1845 22.1038 31.82 21.927 31.3936C21.7503 30.9673 21.7039 30.498 21.7939 30.0453C21.8838 29.5925 22.106 29.1766 22.4323 28.8502C22.7586 28.5237 23.1745 28.3014 23.6272 28.2113C24.0799 28.1212 24.5491 28.1673 24.9756 28.3439C25.4021 28.5205 25.7666 28.8196 26.023 29.2034C26.2795 29.5872 26.4164 30.0384 26.4164 30.5C26.4157 31.1186 26.1697 31.7116 25.7324 32.149C25.2951 32.5865 24.7022 32.8327 24.0836 32.8336ZM36.9164 39.25C36.4548 39.25 36.0036 39.1131 35.6199 38.8567C35.2361 38.6003 34.937 38.2358 34.7604 37.8094C34.5838 37.383 34.5375 36.9138 34.6276 36.4611C34.7176 36.0084 34.9399 35.5926 35.2663 35.2663C35.5926 34.9399 36.0084 34.7176 36.4611 34.6276C36.9138 34.5375 37.383 34.5838 37.8094 34.7604C38.2358 34.937 38.6003 35.2361 38.8567 35.6199C39.1131 36.0036 39.25 36.4548 39.25 36.9164C39.2495 37.5352 39.0035 38.1285 38.566 38.566C38.1284 39.0035 37.5351 39.2495 36.9164 39.25Z" fill="#EEEBDD"/>
</g>
<rect x="1" y="1" width="59" height="59" rx="29.5" stroke="#EEEBDD" stroke-width="2"/>
<defs>
<clipPath id="clip0_127_208">
<rect width="21" height="21" fill="white" transform="translate(20 20)"/>
</clipPath>
</defs>
</svg>
