<svg width="21" height="21" viewBox="0 0 21 21" fill="none" xmlns="http://www.w3.org/2000/svg">
<path d="M17.9322 6.972L9.58475 0.847004C8.93278 0.369591 8.16132 0.0820742 7.35592 0.0163345C6.55052 -0.0494051 5.74265 0.109201 5.02188 0.474567C4.30112 0.839932 3.69563 1.39778 3.27255 2.08625C2.84947 2.77473 2.62534 3.56693 2.625 4.375V16.625C2.62514 17.4334 2.84929 18.226 3.27257 18.9148C3.69584 19.6036 4.30169 20.1616 5.02287 20.527C5.74405 20.8923 6.55236 21.0507 7.35809 20.9845C8.16382 20.9184 8.93546 20.6302 9.58737 20.1521L17.9349 14.0271C18.489 13.6208 18.9396 13.0896 19.2502 12.4767C19.5608 11.8637 19.7226 11.1863 19.7226 10.4991C19.7226 9.81199 19.5608 9.13451 19.2502 8.52158C18.9396 7.90864 18.489 7.37748 17.9349 6.97113L17.9322 6.972ZM16.8962 12.6158L8.54875 18.7408C8.15764 19.0266 7.69507 19.1986 7.21225 19.2377C6.72943 19.2769 6.24519 19.1817 5.81312 18.9627C5.38106 18.7437 5.01802 18.4094 4.7642 17.9968C4.51038 17.5842 4.37568 17.1094 4.375 16.625V4.375C4.37014 3.88968 4.50231 3.41284 4.7563 2.99926C5.0103 2.58569 5.37582 2.25216 5.81087 2.037C6.18091 1.84878 6.5901 1.75046 7.00525 1.75C7.56166 1.75213 8.10269 1.93278 8.54875 2.26538L16.8962 8.39038C17.2283 8.63424 17.4983 8.95283 17.6844 9.32039C17.8705 9.68795 17.9675 10.0941 17.9675 10.5061C17.9675 10.9181 17.8705 11.3243 17.6844 11.6919C17.4983 12.0594 17.2283 12.378 16.8962 12.6219V12.6158Z" fill="#EEEBDD"/>
</svg>
