<svg width="16" height="17" viewBox="0 0 16 17" fill="none" xmlns="http://www.w3.org/2000/svg">
<g clip-path="url(#clip0_1406_2304)">
<path d="M11.6665 1.90442C10.9158 1.9161 10.1814 2.12565 9.53765 2.51193C8.89385 2.89821 8.36338 3.44753 7.99981 4.10442C7.63624 3.44753 7.10577 2.89821 6.46197 2.51193C5.81817 2.12565 5.08384 1.9161 4.33314 1.90442C3.13644 1.95641 2.00895 2.47992 1.197 3.36057C0.385049 4.24123 -0.0453576 5.40744 -0.000190567 6.60442C-0.000190567 9.63575 3.19048 12.9464 5.86648 15.1911C6.46396 15.6932 7.21938 15.9684 7.99981 15.9684C8.78024 15.9684 9.53566 15.6932 10.1331 15.1911C12.8091 12.9464 15.9998 9.63575 15.9998 6.60442C16.045 5.40744 15.6146 4.24123 14.8026 3.36057C13.9907 2.47992 12.8632 1.95641 11.6665 1.90442Z" fill="#CE1212"/>
</g>
<defs>
<clipPath id="clip0_1406_2304">
<rect width="16" height="16" fill="white" transform="translate(0 0.626709)"/>
</clipPath>
</defs>
</svg>
