<svg width="16" height="17" viewBox="0 0 16 17" fill="none" xmlns="http://www.w3.org/2000/svg">
<path d="M0.884673 8.76672L3.25801 10.5001L2.35667 13.2914C2.21101 13.7243 2.20917 14.1927 2.35141 14.6268C2.49366 15.0608 2.77237 15.4373 3.14601 15.7001C3.51324 15.9712 3.95827 16.1165 4.41478 16.1142C4.87128 16.112 5.31484 15.9622 5.67934 15.6874L8.00001 13.9794L10.3213 15.6854C10.6879 15.955 11.1305 16.1015 11.5856 16.1037C12.0406 16.1059 12.4847 15.9638 12.8539 15.6977C13.223 15.4317 13.4983 15.0554 13.6402 14.623C13.7821 14.1907 13.7832 13.7244 13.6433 13.2914L12.742 10.5001L15.1153 8.76672C15.4814 8.49906 15.7536 8.12255 15.8929 7.69098C16.0322 7.25941 16.0316 6.79484 15.8911 6.36364C15.7506 5.93244 15.4775 5.55667 15.1107 5.28999C14.7439 5.02331 14.3022 4.87936 13.8487 4.87872H10.9333L10.0487 2.12138C9.90955 1.68736 9.63619 1.30873 9.26799 1.04009C8.89979 0.771462 8.45578 0.626709 8.00001 0.626709C7.54423 0.626709 7.10023 0.771462 6.73203 1.04009C6.36383 1.30873 6.09046 1.68736 5.95134 2.12138L5.06667 4.87872H2.15401C1.7005 4.87936 1.2588 5.02331 0.891993 5.28999C0.525185 5.55667 0.252034 5.93244 0.111554 6.36364C-0.0289254 6.79484 -0.0295472 7.25941 0.109778 7.69098C0.249102 8.12255 0.521247 8.49906 0.88734 8.76672H0.884673Z" fill="#FFD200"/>
</svg>
