<?xml version="1.0" standalone="no"?>
<!DOCTYPE svg PUBLIC "-//W3C//DTD SVG 20010904//EN"
 "http://www.w3.org/TR/2001/REC-SVG-20010904/DTD/svg10.dtd">
<svg version="1.0" xmlns="http://www.w3.org/2000/svg"
 width="100.000000pt" height="100.000000pt" viewBox="0 0 100.000000 100.000000"
 preserveAspectRatio="xMidYMid meet">

<g transform="translate(0.000000,100.000000) scale(0.100000,-0.100000)"
fill="#CE1212" stroke="none">
<path d="M280 984 c-71 -19 -154 -76 -202 -139 -151 -200 -63 -493 175 -580
67 -25 183 -26 252 -2 159 55 267 225 252 397 l-6 65 34 -70 c44 -91 56 -169
53 -357 -3 -136 -1 -157 17 -192 23 -46 79 -94 114 -98 39 -5 35 19 -6 40 -81
42 -93 80 -91 297 1 123 -3 175 -16 225 -51 188 -220 373 -381 415 -72 18
-123 18 -195 -1z m241 -56 c72 -33 134 -94 167 -167 23 -47 27 -70 27 -141 0
-102 -28 -173 -95 -240 -67 -67 -138 -95 -240 -95 -71 0 -94 4 -141 26 -192
90 -255 319 -140 501 35 55 82 92 158 124 79 33 183 30 264 -8z"/>
<path d="M320 918 c-59 -31 -46 -116 24 -153 36 -19 36 -19 72 0 59 32 80 93
46 135 -22 28 -104 38 -142 18z m104 -34 c23 -9 20 -44 -6 -71 -27 -29 -45
-29 -75 -1 -25 23 -31 63 -10 71 18 8 73 8 91 1z"/>
<path d="M150 780 c-28 -7 -56 -49 -65 -100 -14 -76 60 -115 132 -70 45 27 54
48 38 93 -23 66 -55 90 -105 77z m40 -40 c20 -11 43 -67 34 -82 -13 -20 -68
-37 -88 -26 -14 8 -17 17 -13 45 4 20 14 44 23 54 20 22 20 22 44 9z"/>
<path d="M533 758 c-12 -13 -26 -40 -31 -60 -9 -32 -7 -41 9 -61 62 -80 181
-47 164 45 -4 20 -15 50 -26 67 -16 26 -25 31 -57 31 -27 0 -45 -7 -59 -22z
m82 -31 c26 -40 30 -84 8 -95 -22 -12 -80 9 -89 32 -6 17 20 72 38 79 23 9 27
7 43 -16z"/>
<path d="M350 645 c-26 -32 13 -81 48 -59 34 22 22 74 -18 74 -10 0 -23 -7
-30 -15z"/>
<path d="M451 511 c-24 -24 -37 -85 -25 -120 5 -14 21 -32 36 -40 23 -14 30
-13 68 4 122 55 100 175 -31 175 -16 0 -38 -9 -48 -19z m109 -39 c27 -22 20
-40 -26 -71 -41 -29 -67 -21 -72 22 -7 61 49 89 98 49z"/>
<path d="M175 495 c-34 -33 -33 -74 3 -107 58 -55 100 -61 139 -22 22 22 25
32 20 70 -7 63 -29 84 -89 84 -39 0 -54 -5 -73 -25z m115 -24 c16 -30 12 -81
-6 -88 -35 -13 -114 46 -96 73 23 35 86 44 102 15z"/>
</g>
</svg>
